<svg width="24" height="23" viewBox="0 0 24 23" fill="none" xmlns="http://www.w3.org/2000/svg">
<g clip-path="url(#clip0_228_6991)">
<path d="M2.90534 18.0628C2.62933 18.0614 2.36213 17.9663 2.14806 17.7934C1.93266 17.6321 1.76897 17.4123 1.67683 17.1606C1.58469 16.9089 1.56804 16.6361 1.6289 16.3753C1.73844 15.9025 1.85276 15.4015 1.96707 14.9051L2.03376 14.612C1.28267 13.7588 0.717295 12.7608 0.373067 11.6806C0.0288385 10.6003 -0.0868199 9.46112 0.033353 8.33443C0.180341 6.41915 1.01129 4.61883 2.37667 3.2575C3.79721 1.84544 5.67258 0.973789 7.67499 0.794924C9.6774 0.616059 11.6795 1.14135 13.3312 2.27899C15.0309 3.46113 16.2331 5.22251 16.7087 7.2276C17.1843 9.2327 16.9002 11.3414 15.9104 13.1519C14.9205 14.9625 13.2943 16.3484 11.3413 17.0457C9.38836 17.743 7.24519 17.7029 5.32011 16.9331L3.615 17.8785C3.39864 18.0002 3.15403 18.0637 2.90534 18.0628ZM2.90534 16.7203L2.56719 17.264L2.98156 16.7392C2.95834 16.7262 2.93199 16.7197 2.90534 16.7203ZM8.4493 2.06627C7.49933 2.06206 6.55806 2.24594 5.68055 2.60713C4.80303 2.96833 4.00692 3.49959 3.33877 4.16984C2.19665 5.31138 1.50248 6.82 1.38122 8.42424C1.2771 9.42585 1.39358 10.4379 1.72253 11.3905C2.05148 12.343 2.58506 13.2132 3.28636 13.9408L3.52927 14.2008L3.30066 15.1793C3.18635 15.652 3.0768 16.1531 2.96726 16.6352L2.92914 16.6967L3.22921 16.536L5.25819 15.4156L5.55348 15.5338C9.84004 17.2167 13.5646 15.0186 14.9077 12.0925C15.4204 11.0189 15.6502 9.83366 15.5755 8.64787C15.5008 7.46207 15.1241 6.3145 14.4807 5.31262C13.8372 4.31075 12.948 3.48736 11.8965 2.91957C10.8449 2.35179 9.6654 2.05819 8.46834 2.06627H8.4493Z" fill="#404143"/>
<path d="M20.3611 22.5347L18.6512 21.5893C16.7266 22.3558 14.5853 22.3934 12.6346 21.6951C10.6838 20.9968 9.0597 19.6112 8.07117 17.8019C7.08263 15.9925 6.79862 13.8857 7.27316 11.8821C7.74771 9.87852 8.9477 8.11793 10.6449 6.9352C12.2966 5.79757 14.2987 5.27227 16.3011 5.45114C18.3035 5.63 20.1789 6.50165 21.5994 7.91372C22.9648 9.27504 23.7958 11.0754 23.9428 12.9906C24.0653 14.1171 23.9521 15.2565 23.6103 16.3375C23.2686 17.4186 22.7056 18.4179 21.9567 19.273L22.0281 19.5661C22.1424 20.0388 22.2567 20.5493 22.3663 21.0362C22.4278 21.2975 22.4111 21.571 22.318 21.823C22.2249 22.075 22.0596 22.2944 21.8424 22.4543C21.6282 22.6266 21.3607 22.7201 21.0851 22.719C20.8316 22.7224 20.5817 22.6588 20.3611 22.5347ZM21.0136 21.4238L21.428 21.9485L21.0898 21.4049C21.0632 21.4043 21.0368 21.4108 21.0136 21.4238Z" fill="#404143"/>
<path d="M11.4214 8.04607C10.0703 9.0085 9.09987 10.4086 8.67733 12.005C8.25478 13.6013 8.40662 15.294 9.10663 16.7912C10.4498 19.7173 14.1838 21.9154 18.4561 20.2326L18.7562 20.1144L20.7852 21.2347L21.0852 21.3954L21.0471 21.334C20.9376 20.8613 20.8232 20.3886 20.7089 19.878L20.4803 18.8995L20.7232 18.6395C21.4225 17.9118 21.9541 17.0421 22.2814 16.0904C22.6087 15.1387 22.7238 14.1279 22.6188 13.1277C22.4984 11.5223 21.8022 10.0129 20.6565 8.87331C19.4597 7.68322 17.8793 6.94872 16.1918 6.79836C14.5044 6.64799 12.8175 7.09133 11.4261 8.05079L11.4214 8.04607Z" fill="white"/>
<path d="M14.522 11.3409C15.1649 10.1307 17.3082 10.4238 17.2796 11.9081C17.2455 12.2459 17.131 12.5708 16.9455 12.856C16.76 13.1412 16.5089 13.3785 16.2128 13.5484C15.8841 13.7753 15.4174 13.9124 15.184 14.2433C14.8887 14.6546 14.9792 15.2786 15.0364 15.7513C15.0411 15.9065 15.1054 16.054 15.216 16.1638C15.3266 16.2736 15.4753 16.3374 15.6317 16.3422C15.7892 16.3409 15.9399 16.2783 16.0513 16.1677C16.1627 16.0572 16.2258 15.9076 16.2271 15.7513C16.2271 15.6804 16.1699 14.8578 16.1842 14.8578C16.0365 15.0044 16.0222 15.0375 16.1461 14.9571L16.3033 14.8767C16.4128 14.82 16.5176 14.7586 16.6224 14.6971C17.0291 14.4575 17.3942 14.1542 17.7035 13.799C18.0548 13.4255 18.2967 12.9641 18.4033 12.4643C18.5099 11.9645 18.4771 11.4453 18.3084 10.9627C17.513 8.97731 14.4982 8.84022 13.4932 10.7263C13.136 11.3976 14.16 11.9932 14.522 11.322V11.3409Z" fill="#404143"/>
<path d="M15.8366 18.6537C15.9945 18.6537 16.1459 18.5915 16.2575 18.4806C16.3692 18.3698 16.4319 18.2195 16.4319 18.0628C16.4319 17.9061 16.3692 17.7558 16.2575 17.645C16.1459 17.5342 15.9945 17.4719 15.8366 17.4719C15.6787 17.4719 15.5272 17.5342 15.4156 17.645C15.3039 17.7558 15.2412 17.9061 15.2412 18.0628C15.2412 18.2195 15.3039 18.3698 15.4156 18.4806C15.5272 18.5915 15.6787 18.6537 15.8366 18.6537Z" fill="#404143"/>
</g>
<defs>
<clipPath id="clip0_228_6991">
<rect width="24" height="22" fill="white" transform="translate(0 0.742676)"/>
</clipPath>
</defs>
</svg>
