<svg width="24" height="25" viewBox="0 0 24 25" fill="none" xmlns="http://www.w3.org/2000/svg">
<g clip-path="url(#clip0_435_4562)">
<path d="M23.9999 12.1554C24.0013 9.78098 23.2986 7.45948 21.9804 5.48454C20.6623 3.50961 18.7881 1.96996 16.5949 1.06032C14.4016 0.150691 11.9879 -0.0880406 9.65893 0.374305C7.32998 0.836651 5.19047 1.9793 3.51101 3.65774C1.83155 5.33619 0.687605 7.47502 0.223857 9.80369C-0.239891 12.1324 -0.00260383 14.5463 0.905708 16.7401C1.81402 18.9339 3.35255 20.809 5.32669 22.1283C7.30083 23.4476 9.62189 24.1518 11.9963 24.1518H12.2131V14.8076H9.63315V11.8085H12.2492V9.5899C12.2492 7.03163 13.8102 5.62961 16.1011 5.62961C16.8737 5.62379 17.646 5.66485 18.4136 5.7525V8.44806H16.8021C15.5591 8.44806 15.3134 9.03343 15.3134 9.89341V11.8085H18.2908L17.9005 14.8148H15.3134V23.6965C17.8178 22.9764 20.0198 21.4608 21.5869 19.3788C23.154 17.2967 24.001 14.7613 23.9999 12.1554Z" fill="#BC7D6F"/>
</g>
<defs>
<clipPath id="clip0_435_4562">
<rect width="24" height="24" fill="white" transform="translate(0 0.151855)"/>
</clipPath>
</defs>
</svg>
