<svg width="48" height="42" viewBox="0 0 48 42" fill="none" xmlns="http://www.w3.org/2000/svg">
<g clip-path="url(#clip0_386_5500)">
<path d="M47.9999 9.51197C47.9888 9.41179 47.957 9.3151 47.9066 9.22818C47.909 9.19321 47.9058 9.15809 47.8973 9.12412C47.8395 9.04664 47.7664 8.98221 47.6828 8.93492L29.6245 0.364371C29.5307 0.315415 29.4268 0.289871 29.3213 0.289871C29.2159 0.289871 29.112 0.315415 29.0182 0.364371L11.5755 9.59711C11.454 9.66491 11.3548 9.76737 11.2901 9.8918C11.2255 10.0162 11.1982 10.1572 11.2117 10.2971V12.9648C11.2117 13.5797 10.9785 14.5162 11.6688 14.8567C11.898 14.9676 12.1535 15.0102 12.4057 14.9797C13.1519 14.8567 13.0306 14.2324 13.0306 13.6364V12.2269L28.1227 20.2961V37.7872L13.0306 28.9896C13.0306 28.3653 13.3011 27.7788 12.5922 27.5139C12.44 27.4583 12.2777 27.4371 12.1166 27.4518C11.9554 27.4665 11.7994 27.5168 11.6595 27.5991C11.2957 27.8545 11.3423 28.3653 11.3423 28.7626V30.1059C11.3423 30.3897 11.3423 30.7113 11.5942 30.8721L28.9622 40.9941C29.0497 41.0378 29.1448 41.0636 29.242 41.0698H29.298C29.4194 41.0709 29.5388 41.0382 29.6431 40.9752L47.6921 30.5694C47.7976 30.5088 47.8851 30.4207 47.9458 30.3143C48.0065 30.2079 48.038 30.0869 48.0372 29.964L47.9999 9.51197ZM29.298 2.17119L44.9684 9.62549L41.368 11.6404L25.996 3.82665L29.298 2.17119ZM24.3824 4.67803L39.5024 12.6715L36.2005 14.5635L20.9498 6.56998L24.3824 4.67803ZM29.242 18.3474L14.094 10.2498L19.3548 7.4119L34.6894 15.2824L29.242 18.3474ZM45.7799 28.564L30.7438 37.6359V20.2394L45.7799 11.8296V28.564Z" fill="#404143"/>
<path d="M39.9504 22.0935L41.6293 21.2326C41.6803 21.441 41.6859 21.6581 41.6456 21.8689C41.6053 22.0797 41.5202 22.279 41.3962 22.4529C41.1256 22.9354 40.0996 23.7584 40.2395 24.2598C40.3794 24.7611 41.023 26.0004 40.7152 26.5869C40.6548 26.7081 40.5657 26.8122 40.456 26.89C40.3462 26.9678 40.2192 27.0169 40.0862 27.0328C39.9532 27.0487 39.8184 27.031 39.6938 26.9813C39.5692 26.9315 39.4586 26.8513 39.372 26.7477C39.2415 26.6152 39.0829 26.445 38.859 26.5774C38.3833 26.8517 37.9822 27.8923 37.749 28.4126C37.7087 28.5363 37.6418 28.6494 37.5532 28.7437C37.4226 28.8667 37.2827 28.8856 37.2174 28.791C37.1485 28.6768 37.1099 28.5464 37.1054 28.4126C37.0495 27.8923 37.1055 26.9463 36.8909 26.6152C36.6764 26.2842 36.1167 26.4261 35.7902 26.3031C35.7207 26.2749 35.6582 26.2314 35.6073 26.1757C35.5564 26.12 35.5184 26.0535 35.4961 25.981C35.4737 25.9085 35.4676 25.8318 35.4782 25.7566C35.4887 25.6815 35.5157 25.6096 35.557 25.5463C35.6526 25.3921 35.7723 25.2547 35.9115 25.1395L37.1894 24.0422C37.3326 23.9335 37.4611 23.8063 37.5718 23.6638C37.6732 23.501 37.7547 23.3263 37.8143 23.1435C38.1222 22.2448 38.1688 20.3056 38.8031 21.2989C38.9896 21.5826 38.9803 22.6043 39.428 22.3678L39.9504 22.0935Z" fill="#404143"/>
<path d="M7.78855 26.3977H1.623C1.3904 26.4214 1.15603 26.4214 0.923427 26.3977C0.673726 26.3359 0.451675 26.1909 0.292913 25.986C0.134151 25.781 0.0478516 25.5279 0.0478516 25.2672C0.0478516 25.0066 0.134151 24.7535 0.292913 24.5485C0.451675 24.3435 0.673726 24.1985 0.923427 24.1368C1.13212 24.094 1.34485 24.075 1.5577 24.08H13.9448C14.1798 24.0734 14.4147 24.0957 14.6444 24.1462C14.8976 24.2031 15.1234 24.3475 15.2833 24.5545C15.4432 24.7615 15.5273 25.0185 15.5212 25.2814C15.5171 25.5332 15.4319 25.7767 15.2787 25.9748C15.1254 26.1729 14.9125 26.3148 14.6723 26.3787C14.4423 26.4262 14.2074 26.4453 13.9728 26.4355L7.78855 26.3977Z" fill="#404143"/>
<path d="M8.87053 20.1448H13.8795C14.0936 20.126 14.3089 20.126 14.5231 20.1448C14.7864 20.2011 15.0227 20.3474 15.1925 20.5591C15.3623 20.7709 15.4552 21.0354 15.4558 21.3083C15.4548 21.5749 15.3604 21.8325 15.1896 22.0352C15.0188 22.2379 14.7826 22.3725 14.5231 22.4151C14.2923 22.4575 14.058 22.4765 13.8235 22.4719H3.76832C3.53384 22.4768 3.29946 22.4578 3.06875 22.4151C2.83602 22.3687 2.62456 22.2466 2.46635 22.0674C2.30815 21.8881 2.21181 21.6615 2.19195 21.4218C2.17462 21.159 2.24798 20.8982 2.39943 20.6842C2.55089 20.4702 2.77104 20.3163 3.02212 20.2488C3.2522 20.2013 3.4871 20.1823 3.72169 20.1921L8.87053 20.1448Z" fill="#404143"/>
<path d="M9.93368 18.5839H6.01609C5.78131 18.5853 5.54698 18.5631 5.31651 18.5177C5.05133 18.4763 4.81017 18.3381 4.63841 18.129C4.46664 17.92 4.37608 17.6545 4.38375 17.3825C4.3923 17.1149 4.48872 16.8579 4.6577 16.6523C4.82669 16.4466 5.05856 16.3041 5.31651 16.2473C5.48702 16.2285 5.65902 16.2285 5.82952 16.2473C8.55319 16.2473 11.2676 16.2473 13.9819 16.2473C14.3084 16.2563 14.6281 16.3439 14.9147 16.5027C15.1232 16.5948 15.2914 16.761 15.3876 16.9701C15.4838 17.1791 15.5014 17.4166 15.437 17.6379C15.4135 17.8553 15.3205 18.0589 15.1724 18.2177C15.0242 18.3765 14.8289 18.4818 14.6162 18.5177C14.3426 18.573 14.0649 18.6047 13.786 18.6123L9.93368 18.5839Z" fill="#404143"/>
</g>
<defs>
<clipPath id="clip0_386_5500">
<rect width="48" height="40.8" fill="white" transform="translate(0 0.269775)"/>
</clipPath>
</defs>
</svg>
