<svg xmlns="http://www.w3.org/2000/svg" width="63" height="61" viewBox="0 0 63 61" fill="none">
  <path d="M11.0116 38.1196C8.8544 38.5354 7.39894 37.3788 5.70958 36.2612C5.42368 36.0663 5.13779 35.8714 4.92987 35.5985C4.61798 35.1826 4.52702 33.0644 3.52639 33.6362C2.99359 33.9351 3.30547 34.8838 2.91562 35.0267C2.13591 35.3126 1.97997 34.0651 1.18726 35.1567C1.03132 35.3776 0.940355 35.6765 1.03132 35.9364C1.20026 36.4562 1.81103 36.4432 2.1619 36.6901C1.97997 37.028 1.60311 37.1319 1.30422 37.3658C1.0963 37.5348 0.966345 37.8077 1.04432 38.0676C1.12229 38.3015 1.38219 38.4314 1.6161 38.4574C2.30485 38.5094 2.74668 38.0416 3.42243 38.0676C4.24112 38.1066 5.0988 38.4834 5.85252 38.7563C7.32097 39.2891 8.91938 40.2637 10.4788 40.2118C11.9992 40.1598 13.4677 39.549 14.7022 38.6524C15.9238 37.7427 16.9114 36.5471 17.7301 35.2606C18.2239 34.4809 18.3539 33.3373 17.4832 32.7396C15.8978 31.635 15.6899 34.247 15.222 35.0527C14.3384 36.5731 12.714 37.7947 10.9856 38.1325" fill="#404749"/>
  <path d="M55.7281 20.628C57.1185 19.1076 57.9372 17.4832 59.0158 15.7808C59.7696 14.5723 61.5759 14.0915 62.0047 12.688C61.6279 12.4541 61.16 12.2851 60.7182 12.4411C60.3543 12.558 60.1334 12.779 59.8085 12.766C59.8085 12.2981 60.0035 11.8303 59.9255 11.3365C59.8345 10.8037 59.3537 10.2969 58.8209 10.3749C58.704 10.7907 58.574 11.1935 58.457 11.6094C58.0412 11.5314 57.9112 10.9596 57.5214 10.7907C57.0146 10.5698 56.4948 11.1935 56.5468 11.7523C56.7677 13.9745 57.7163 13.6886 56.4818 15.8068C55.5201 17.4702 54.8054 19.1336 53.207 20.3291C52.5962 20.784 48.8796 22.9542 50.2441 24.0328C51.4916 25.0074 55.0523 21.3817 55.7281 20.641" fill="#404749"/>
  <path d="M25.8909 44.3054C25.0202 45.8128 24.9683 47.6842 25.3841 49.3735C26.1118 52.3754 28.6589 54.4546 27.2034 57.7684C26.9825 58.2492 26.6966 58.769 26.8266 59.2758C27.0215 60.0165 28.0351 60.2635 28.7109 59.9126C29.3866 59.5617 29.7505 58.821 29.9844 58.0933C30.998 54.9354 29.9714 53.9738 28.1131 51.6867C27.6193 51.0759 27.3854 50.3092 27.2034 49.5425C26.9825 48.5808 26.8396 47.5542 27.0865 46.5926C27.3334 45.6309 28.0221 44.7342 28.9968 44.4873C29.6335 44.3314 30.2963 44.4614 30.946 44.4354C33.5581 44.3054 32.3625 41.5894 30.3482 41.4985C28.8148 41.4335 26.6186 43.0709 25.9039 44.3054" fill="#404749"/>
  <path d="M38.4312 44.3054C39.3019 45.8128 39.3539 47.6842 38.938 49.3735C38.2103 52.3754 35.6632 54.4546 37.1187 57.7684C37.3396 58.2492 37.6255 58.769 37.4955 59.2758C37.3006 60.0165 36.287 60.2635 35.6242 59.9126C34.9485 59.5617 34.5846 58.821 34.3507 58.0933C33.3371 54.9354 34.3637 53.9738 36.209 51.6867C36.7028 51.0759 36.9368 50.3092 37.1187 49.5425C37.3396 48.5808 37.4826 47.5542 37.2356 46.5926C36.9887 45.6309 36.287 44.7342 35.3254 44.4873C34.6886 44.3314 34.0258 44.4614 33.3761 44.4354C30.7641 44.3054 31.9596 41.5894 33.9739 41.4985C35.5073 41.4335 37.7035 43.0709 38.4182 44.3054" fill="#404749"/>
  <path d="M50.7119 19.9783C50.2051 18.9777 50.556 17.8991 50.2961 16.8595C49.8672 15.0922 48.6327 14.0266 46.7744 12.766C46.9433 12.4671 47.3852 12.4411 47.749 12.4541C48.7107 12.5061 49.6723 12.5711 50.6339 12.6231C49.0485 10.8687 46.7484 10.2969 45.046 8.85448C43.1747 7.25608 41.7842 5.44975 39.2242 4.65705C39.9129 3.7344 40.3288 2.6558 40.4068 1.5772C39.0293 2.55184 37.5088 3.33155 35.8974 3.87734C35.8325 2.90271 37.067 0.498603 35.9624 0.0697632C36.1184 0.134739 33.4803 3.96831 32.9345 4.2542C32.5837 4.43613 32.1418 4.55309 31.674 4.64406C31.674 4.63106 31.648 4.61807 31.635 4.59207C31.2322 4.08526 30.7773 3.66942 30.2965 3.37053C29.036 2.59082 27.6715 2.6428 26.5409 1.42126C26.7488 2.17498 27.0347 2.90271 27.4116 3.59145C27.5156 3.78638 27.6325 3.9943 27.7755 4.16324C27.9054 4.31918 27.9964 4.50111 28.1133 4.67005C28.1913 4.77401 28.2823 4.87797 28.3602 4.99492C28.4642 5.15087 28.5682 5.38478 28.3862 5.54072C28.3473 5.57971 28.2953 5.5927 28.2433 5.61869C27.7625 5.81362 27.2297 5.83961 26.7099 5.8526C26.1511 5.8656 25.6053 5.87859 25.0075 6.06053C23.8899 6.3984 22.8373 6.82724 21.8627 7.477C19.9914 8.72453 19.9524 10.206 19.7055 12.1553C19.4456 14.2345 17.4703 14.6113 15.755 15.3651C15.4431 15.508 15.0662 15.8329 15.2741 16.1058C16.0279 17.1064 17.4183 16.6646 18.0941 17.8731C18.6399 18.8348 18.6139 20.1992 17.8992 21.0569C17.4313 21.6157 16.7816 21.9796 16.3008 22.5254C15.0142 23.9419 15.1442 26.112 15.3651 28.0223C15.4561 28.7631 15.599 29.6207 16.2358 29.9976C16.5736 30.2055 17.0025 30.2315 17.3534 30.4264C18.406 30.9982 18.25 32.5446 17.8602 33.6882C17.5483 34.5979 16.9895 36.4042 17.5483 37.3528C18.263 38.5614 18.7049 37.3399 19.8744 37.2229C20.0563 37.2099 20.2643 37.2229 20.4202 37.3139C20.6151 37.4438 20.6931 37.6777 20.7581 37.8986C21.005 38.7823 21.1739 39.692 21.2779 40.6016C21.3299 41.1214 21.3689 41.6542 21.5898 42.1221C22.0836 43.1617 23.578 42.8758 24.4747 43.5385C25.4493 44.2663 26.1381 45.4098 26.281 46.6184C29.6338 47.1642 33.1165 46.9303 36.3913 46.0596C39.3931 45.2669 42.2521 43.9284 44.7731 42.1221C45.7348 41.4333 46.6574 40.6666 47.3592 39.718C48.1129 38.6913 48.5807 37.4828 48.9706 36.2743C49.2175 35.4685 49.2694 34.6109 49.4904 33.8052C49.5943 33.4413 49.6983 32.7915 49.9712 32.5187C50.478 32.0248 50.569 32.7396 51.0758 33.0385C51.1407 33.0774 51.2057 33.1554 51.2057 33.2204C51.4786 32.8565 51.6086 32.3757 51.6086 31.9209C51.6086 31.4271 51.5046 30.9462 51.4007 30.4654C51.3097 30.0756 51.2187 29.6727 51.0368 29.3088C50.8678 28.984 50.361 28.5421 50.4 28.1393C50.452 27.6845 50.8419 27.6455 51.2187 27.8664C51.2837 27.9054 51.3617 27.9574 51.4396 27.9574C51.6216 27.9574 51.6865 27.7104 51.6865 27.5155C51.6735 26.5799 51.5566 25.6442 51.3487 24.7346C51.1927 24.0718 50.426 22.7463 51.6086 22.6163C51.6606 22.6163 51.7255 22.6163 51.7645 22.5774C51.8035 22.5384 51.8295 22.4864 51.8425 22.4344C51.9334 21.9796 51.7385 21.5118 51.4916 21.1219C51.2447 20.732 50.9198 20.3942 50.7119 19.9783Z" fill="#84B1B9"/>
  <path d="M51.2182 33.2074C51.2182 33.2074 51.1922 33.2464 51.1792 33.2724C51.2182 33.2724 51.2182 33.2334 51.2182 33.2074Z" fill="#74A6AC"/>
  <path d="M21.5899 42.1222C21.369 41.6544 21.33 41.1216 21.2781 40.6018C21.1871 39.6921 21.0052 38.7824 20.7583 37.8988C20.6933 37.6778 20.6153 37.4309 20.4204 37.314C20.2644 37.21 20.0565 37.197 19.8746 37.223C18.718 37.327 18.2762 38.5615 17.5485 37.353C16.9897 36.4043 17.5485 34.611 17.8603 33.6883C18.2502 32.5578 18.4061 30.9983 17.3535 30.4266C17.0027 30.2316 16.5868 30.2056 16.2359 29.9977C15.5992 29.6079 15.4432 28.7632 15.3653 28.0224C15.1444 26.1122 15.0144 23.942 16.3009 22.5255C16.7817 21.9927 17.4445 21.6158 17.8993 21.057C18.6141 20.1994 18.64 18.8349 18.0942 17.8732C17.4185 16.6777 16.015 17.1065 15.2743 16.1059C15.0664 15.833 15.4432 15.5081 15.7551 15.3652C17.4705 14.6115 19.4457 14.2216 19.7056 12.1554C19.9526 10.2061 19.9915 8.72465 21.8628 7.47712C22.8375 6.82736 23.8901 6.39852 25.0077 6.06064C25.6054 5.87871 26.1512 5.87871 26.71 5.85272C27.1389 5.83973 27.5807 5.81374 28.0355 5.70977C28.1655 5.68378 28.5164 5.56683 28.5294 5.39789C28.5294 5.22895 28.2435 5.099 28.1005 5.03403C27.7756 4.86509 27.3988 4.8261 27.0479 4.73514C26.5801 4.61818 26.1772 4.48823 25.6834 4.5662C24.5788 4.74813 23.6822 5.26794 22.6815 5.67079C21.6809 6.07364 20.7972 6.76238 19.9656 7.46412C19.3288 7.90596 18.692 8.3348 18.0423 8.69866C16.6128 9.50436 14.9754 10.0891 13.364 9.80325C13.481 10.6869 13.5979 11.5706 13.7149 12.4673C13.7799 12.9351 13.8578 13.4549 14.2087 13.7668C14.2477 13.8058 14.2997 13.8317 14.3516 13.8707C13.8448 14.5985 13.312 15.3002 12.6103 15.859C10.713 17.3534 9.02364 18.432 8.46484 20.8491C8.94566 20.7322 9.33552 20.3813 9.73837 20.0954C10.1542 19.8095 10.713 19.5626 11.1548 19.8615C10.83 20.7582 9.89431 21.5509 9.42649 22.4475C9.34851 22.5905 9.28354 22.7724 9.3745 22.9154C9.55644 23.1753 9.94629 22.8894 10.2582 22.9413C10.5831 22.9933 10.713 23.3962 10.765 23.734C10.9729 25.1115 11.3238 25.9692 10.9079 27.3467C10.5831 28.0874 10.1152 28.7892 10.0503 29.5949C9.99827 30.1666 10.1282 30.8684 10.3881 31.3752C10.9599 31.0893 11.4797 30.2836 11.7916 31.3752C12.0515 32.2979 11.7526 33.5454 11.7916 34.507C11.8306 35.6116 11.9865 36.7942 12.7143 37.6129C12.7662 37.6649 12.8442 37.7298 12.9092 37.7038C12.9482 37.6908 12.9742 37.6519 13.0002 37.6129C13.1171 37.392 13.0911 37.1191 13.1171 36.8721C13.2601 35.6116 14.0008 37.0671 14.2217 37.4439C14.6635 38.2236 15.0664 39.0163 15.5602 39.7571C16.7168 41.5114 18.2892 42.9409 19.9136 44.2534C20.6803 44.8642 21.2651 45.293 22.1747 45.5919C23.0844 45.9038 23.9811 46.2027 24.9167 46.4236C25.3715 46.5275 25.8264 46.6185 26.2812 46.6835C26.1253 45.4749 25.4495 44.3314 24.4749 43.6036C23.5782 42.9409 22.0838 43.2268 21.5899 42.1872V42.1222Z" fill="#79A4AB"/>
  <path d="M21.3297 27.6326C21.5376 27.7236 21.5506 28.0615 21.3557 28.1914C21.1607 28.3084 20.8749 28.1784 20.8229 27.9575C20.7839 27.7366 20.9788 27.5027 21.1997 27.4897C21.2387 27.5157 21.2777 27.5417 21.3167 27.5807" fill="white"/>
  <path d="M45.8775 22.8762C46.0855 22.9671 46.0985 23.305 45.9035 23.435C45.7086 23.5519 45.4227 23.422 45.3707 23.201C45.3317 22.9801 45.5267 22.7462 45.7476 22.7332C45.7866 22.7592 45.8256 22.7852 45.8645 22.8242" fill="white"/>
  <path d="M19.5753 27.1386C19.7832 27.2296 19.7962 27.5675 19.6013 27.6974C19.4064 27.8144 19.1205 27.6844 19.0685 27.4635C19.0295 27.2426 19.2244 27.0087 19.4453 26.9957C19.4843 27.0217 19.5233 27.0476 19.5623 27.0866" fill="white"/>
  <path d="M43.7076 23.4479C43.9155 23.5388 43.9285 23.8767 43.7336 24.0067C43.5387 24.1236 43.2528 23.9937 43.2008 23.7728C43.1618 23.5518 43.3567 23.3179 43.5777 23.3049L43.6946 23.3959" fill="white"/>
  <path d="M20.1988 28.5422C20.4067 28.6331 20.4197 28.971 20.2248 29.101C20.0299 29.2179 19.744 29.088 19.692 28.8671C19.653 28.6461 19.848 28.4122 20.0689 28.3992C20.1079 28.4252 20.1468 28.4512 20.1858 28.4902" fill="white"/>
  <path d="M45.5655 24.6306C45.7734 24.7216 45.7864 25.0595 45.5915 25.1894C45.3966 25.3064 45.1107 25.1764 45.0587 24.9555C45.0197 24.7346 45.2146 24.5007 45.4356 24.4877C45.4746 24.5137 45.5135 24.5397 45.5525 24.5786" fill="white"/>
  <path d="M29.036 14.8713C25.4103 15.3132 21.4338 15.9109 18.133 17.5353C15.2221 18.9518 12.6881 20.8361 9.95908 22.5125C9.80314 22.6034 9.6342 22.7204 9.59521 22.9023C9.56922 23.0323 9.6212 23.1752 9.68618 23.2922C9.82913 23.5781 10.0241 23.825 10.154 24.1109C10.5698 25.0075 8.90647 26.2551 9.98507 26.8139C10.5828 27.1257 11.8694 26.489 12.4671 26.32C13.3638 26.0601 14.2605 25.8392 15.1571 25.6053C18.5359 24.7346 22.0316 24.1499 25.5403 24.3448C26.242 24.3838 26.9437 24.4617 27.6455 24.5657C28.4512 24.6827 29.2569 24.8516 30.0366 24.7086C31.57 24.4228 32.7266 22.9543 34.299 22.9023C35.3126 22.8763 36.2873 23.4481 37.3009 23.6041C39.1722 23.877 40.8096 22.6684 42.4599 21.8627C44.1493 21.031 46.1766 20.5632 48.0089 20.1473C48.5937 20.0174 49.2174 19.9004 49.8152 19.8615C50.283 19.8355 50.6339 19.8874 50.5429 19.2637C50.439 18.6009 50.283 17.9512 50.348 17.2754C50.348 17.1325 50.387 16.9765 50.335 16.8466C50.257 16.6257 50.0361 16.4957 49.8282 16.3917C48.8536 15.8849 48.0479 15.3651 46.9823 15.0792C45.9037 14.7933 44.8121 14.5594 43.7075 14.4035C42.1481 14.1956 40.5107 14.2865 38.9513 14.2865C35.6375 14.2865 32.3237 14.4425 29.036 14.8453" fill="#404749"/>
  <path d="M37.7814 18.224C37.3656 18.3539 37.1187 18.8218 37.1187 19.2506C37.1187 19.4715 37.2746 20.4591 37.5345 20.4981C37.8204 20.5501 38.2492 19.7574 38.4312 19.5755C38.6911 19.3156 39.0679 19.1206 39.4188 19.2506C39.5747 19.3026 39.6917 19.4195 39.8086 19.5235C39.9516 19.6534 40.4714 20.3162 40.6793 20.2642C41.4071 20.0953 40.2505 18.6268 40.0036 18.4319C39.3148 17.9251 38.5481 17.9901 37.7814 18.211" fill="white"/>
  <path d="M26.4235 19.6015C26.0077 19.7315 25.7607 20.1993 25.7607 20.6282C25.7607 20.8491 25.9167 21.8367 26.1766 21.8757C26.4625 21.9277 26.8913 21.135 27.0733 20.953C27.3332 20.6931 27.71 20.4982 28.0609 20.6282C28.2038 20.6801 28.3338 20.7971 28.4507 20.9011C28.5937 21.031 29.1135 21.6938 29.3214 21.6418C30.0491 21.4728 28.8926 20.0044 28.6457 19.8095C27.9569 19.3027 27.1902 19.3676 26.4235 19.5886" fill="white"/>
  <path d="M25.5398 11.8304C25.02 14.3515 23.8634 16.7426 22.187 18.6919C24.0713 19.0817 26.0856 18.7828 27.7879 17.8732C29.4903 16.9635 30.8548 15.4561 31.5825 13.6758C31.7125 13.3509 31.8944 12.961 32.2453 12.922C32.5182 12.896 32.7651 13.13 32.843 13.3899C32.934 13.6498 32.895 13.9357 32.856 14.2086" fill="#84B1B9"/>
  <path d="M25.5405 11.8304C25.4235 13.117 25.0857 14.4035 24.5789 15.612C24.332 16.2228 24.0201 16.8076 23.6822 17.3664C23.3443 17.9382 22.9545 18.471 22.5386 18.9908L22.2787 18.25C23.3833 18.432 24.5269 18.419 25.6055 18.1721C26.6971 17.9382 27.7367 17.4573 28.6463 16.8076C29.556 16.1448 30.3487 15.3001 30.9465 14.3255C31.1024 14.0786 31.2324 13.8317 31.3623 13.5718C31.5053 13.3119 31.6482 12.961 32.0381 12.8051C32.233 12.7401 32.4539 12.7791 32.5969 12.883C32.7398 12.987 32.8438 13.13 32.8958 13.2859C32.9997 13.6108 32.9218 13.9097 32.8568 14.2086C32.8568 13.9097 32.8568 13.5978 32.7268 13.3639C32.5969 13.13 32.324 13.013 32.168 13.117C31.9991 13.2079 31.8951 13.4678 31.8042 13.7407C31.7132 14.0266 31.5962 14.3125 31.4663 14.5984C31.2064 15.1572 30.8815 15.69 30.4917 16.1708C30.1148 16.6646 29.673 17.1065 29.1791 17.4963C28.2175 18.289 27.0479 18.8348 25.8264 19.1207C24.6049 19.3936 23.3183 19.4196 22.0968 19.1337L21.3301 18.9518L21.8499 18.393C22.2657 17.9382 22.6556 17.4313 23.0194 16.9245C23.3833 16.4177 23.7082 15.8719 24.0331 15.3261C24.6438 14.2215 25.1507 13.052 25.5535 11.8174" fill="#404749"/>
  <path d="M23.6172 31.791C22.8115 30.8813 22.7465 28.945 24.02 28.4122C23.2013 29.4129 23.3962 30.5954 23.6172 31.791Z" fill="#404749"/>
  <path d="M40.0299 33.922C41.1475 33.0253 42.2911 31.9077 42.7589 30.5042C43.2007 29.1398 42.8758 27.1385 41.6283 26.2808C40.2638 25.3452 38.2106 26.2288 36.8981 26.8006C32.4147 28.7759 29.062 27.7753 28.958 27.8013C28.8541 27.8142 25.3324 27.5284 25.4363 30.4653C25.4883 32.0117 26.7489 33.3242 27.9054 34.2079C29.4518 35.3774 31.3621 36.1571 33.2984 36.3131C35.4946 36.482 37.6388 35.6893 39.3931 34.4288C39.6141 34.2728 39.822 34.1039 40.0429 33.935" fill="#404749"/>
  <path d="M30.6082 35.6764C30.6082 35.6764 30.3093 33.4283 33.0383 32.8175C34.4938 32.4796 36.521 34.5328 36.521 34.5328C36.521 34.5328 36.7549 33.6622 35.6763 32.8565C35.6763 32.8565 36.3911 32.4536 37.4956 32.7655C38.2753 32.9864 38.9381 33.5582 39.198 34.5458C39.198 34.5458 35.3254 37.6517 30.5952 35.6764" fill="#AC7C70"/>
</svg>