<svg width="24" height="25" viewBox="0 0 24 25" fill="none" xmlns="http://www.w3.org/2000/svg">
<path d="M17.5 6.65186H17.51M7 2.15186H17C19.7614 2.15186 22 4.39043 22 7.15186V17.1519C22 19.9133 19.7614 22.1519 17 22.1519H7C4.23858 22.1519 2 19.9133 2 17.1519V7.15186C2 4.39043 4.23858 2.15186 7 2.15186ZM16 11.5219C16.1234 12.3541 15.9813 13.2041 15.5938 13.9509C15.2063 14.6977 14.5931 15.3033 13.8416 15.6815C13.0901 16.0598 12.2384 16.1915 11.4078 16.0578C10.5771 15.9241 9.80976 15.5319 9.21484 14.937C8.61992 14.3421 8.22773 13.5747 8.09407 12.7441C7.9604 11.9134 8.09207 11.0617 8.47033 10.3102C8.84859 9.55871 9.45419 8.9456 10.201 8.5581C10.9478 8.1706 11.7978 8.02844 12.63 8.15186C13.4789 8.27774 14.2649 8.67332 14.8717 9.28016C15.4785 9.887 15.8741 10.6729 16 11.5219Z" stroke="#BC7D6F" stroke-width="2" stroke-linecap="round" stroke-linejoin="round"/>
</svg>
