<svg width="24" height="25" viewBox="0 0 24 25" fill="none" xmlns="http://www.w3.org/2000/svg">
<g clip-path="url(#clip0_435_4564)">
<path d="M0 12.9068V11.4108C0 11.1145 0.0650362 10.8255 0.108397 10.5292C0.393473 8.2382 1.36894 6.08815 2.90516 4.36477C6.25837 0.657457 10.4282 -0.650571 15.2412 0.628562C18.0942 1.40236 20.5559 3.21257 22.145 5.70514C23.7341 8.19772 24.3363 11.1934 23.8338 14.1064C23.3639 16.9197 21.907 19.4734 19.7245 21.3096C17.542 23.1458 14.7766 24.1444 11.9245 24.1261C9.07235 24.1078 6.32003 23.074 4.16122 21.2099C2.00241 19.3459 0.578377 16.7737 0.144544 13.9547C0.0939564 13.6078 0.0433604 13.2609 0 12.9068ZM11.028 14.4461C11.2304 14.5834 11.4255 14.6918 11.5989 14.8291C11.9525 15.098 12.3644 15.2799 12.8012 15.3603C13.2381 15.4406 13.6877 15.4171 14.1138 15.2916C14.688 15.1551 15.2252 14.8941 15.6873 14.5269C16.1494 14.1598 16.525 13.6955 16.7877 13.167C17.4341 11.9769 17.7038 10.6185 17.561 9.27176C17.5327 8.6221 17.3534 7.98795 17.0372 7.41969C16.7211 6.85142 16.2769 6.36466 15.7398 5.99802C15.0016 5.49259 14.1625 5.15332 13.2804 5.0036C12.3983 4.85388 11.4942 4.89727 10.6305 5.13081C9.29089 5.3992 8.10817 6.17826 7.33264 7.30311C6.55712 8.42796 6.24962 9.81039 6.47517 11.1579C6.52457 11.6454 6.72428 12.1055 7.04667 12.4745C7.36905 12.8435 7.79817 13.1031 8.27463 13.2175C8.44084 13.2609 8.49143 13.2175 8.54924 13.0802C8.65989 12.8604 8.707 12.6141 8.6853 12.369C8.66359 12.1238 8.57392 11.8896 8.42638 11.6927C8.20518 11.3632 8.0605 10.9884 8.00298 10.5958C7.94546 10.2031 7.97655 9.80257 8.09396 9.42349C8.39126 8.36597 9.07886 7.46071 10.0179 6.8906C10.9569 6.3205 12.0773 6.12804 13.1527 6.35213C13.7323 6.45994 14.2661 6.73948 14.6849 7.15442C15.1037 7.56936 15.3882 8.10057 15.5014 8.67916C15.6446 9.31454 15.6739 9.97028 15.5881 10.6159C15.5 11.5348 15.1571 12.4108 14.598 13.1453C14.3504 13.4849 14.0019 13.7376 13.6022 13.8673C13.2025 13.9971 12.772 13.9973 12.3722 13.868C12.1543 13.8198 11.9612 13.6946 11.8284 13.5153C11.6956 13.336 11.632 13.1148 11.6495 12.8924C11.6782 12.436 11.7508 11.9834 11.8663 11.541C12.0253 10.8617 12.2493 10.1968 12.3939 9.51744C12.4409 9.36322 12.4526 9.20041 12.4283 9.04103C12.404 8.88165 12.3442 8.72977 12.2533 8.59659C12.1625 8.46341 12.0429 8.35233 11.9033 8.27155C11.7638 8.19078 11.6079 8.14239 11.4472 8.12992C11.2192 8.08474 10.983 8.10797 10.7683 8.1967C10.5536 8.28543 10.3699 8.43569 10.2403 8.62857C9.92762 9.02234 9.7248 9.49191 9.65244 9.98949C9.58009 10.4871 9.64078 10.9949 9.82837 11.4614C9.89297 11.622 9.90807 11.7981 9.87173 11.9673C9.59711 13.0947 9.31527 14.2221 9.0551 15.3639C8.81683 16.4329 8.72927 17.5299 8.79495 18.6232C8.79495 18.8327 8.83831 19.0495 8.85999 19.2591H8.92503C9.14906 19.0134 9.40199 18.7894 9.60434 18.5364C10.1511 17.7661 10.5302 16.8897 10.7173 15.9637C10.8112 15.494 10.9124 14.952 11.028 14.4461Z" fill="#BC7D6F"/>
</g>
<defs>
<clipPath id="clip0_435_4564">
<rect width="24" height="24" fill="white" transform="translate(0 0.151855)"/>
</clipPath>
</defs>
</svg>
