<svg width="24" height="26" viewBox="0 0 24 26" fill="none" xmlns="http://www.w3.org/2000/svg">
<path d="M22.9296 6.37805C22.9284 6.31877 22.9104 6.26105 22.8776 6.21166C22.8499 6.16067 22.806 6.1204 22.7528 6.09726L11.9581 1.04311C11.9017 1.01476 11.8394 1 11.7762 1C11.713 1 11.6506 1.01476 11.5942 1.04311L1.19468 6.49245C1.1243 6.53247 1.06713 6.59218 1.03019 6.66422C0.993244 6.73626 0.978147 6.81752 0.98671 6.89803V18.6702C0.987868 18.7421 1.00764 18.8125 1.04409 18.8745C1.08054 18.9364 1.13241 18.9879 1.19468 19.0238L11.5942 24.9931C11.6527 25.0023 11.7124 25.0023 11.771 24.9931C11.8401 24.9921 11.9079 24.9742 11.9686 24.9411L22.7632 18.8054C22.8255 18.7695 22.8774 18.718 22.9138 18.6561C22.9503 18.5941 22.97 18.5237 22.9712 18.4518V6.38846L22.9296 6.37805ZM11.8541 1.89588L21.4217 6.36766L17.9483 8.27076L8.9423 3.44541L11.8541 1.89588ZM11.6462 11.7442L2.28664 6.83563L6.44644 4.63095L15.3484 9.67468L11.6462 11.7442ZM15.7332 9.4563L6.94559 4.46455L8.51592 3.63259L17.5427 8.45795L15.7332 9.4563ZM11.199 23.7348L1.83947 18.3583V7.70918L11.199 12.6281V23.7348ZM12.239 23.7348V12.7113L21.9624 7.3868V18.2127L12.239 23.7348Z" fill="#404143" stroke="#404143" stroke-width="0.5" stroke-miterlimit="10"/>
</svg>
