<svg width="22" height="24" viewBox="0 0 22 24" fill="none" xmlns="http://www.w3.org/2000/svg">
<path d="M18.0826 4.81073C16.7898 3.96781 15.8568 2.61914 15.5657 1.04696C15.5028 0.707274 15.4683 0.357686 15.4683 0H11.3422L11.3356 16.536C11.2662 18.3877 9.74214 19.8739 7.87379 19.8739C7.29309 19.8739 6.74631 19.7287 6.26489 19.4754C5.1609 18.8944 4.40539 17.7372 4.40539 16.4056C4.40539 14.493 5.96139 12.937 7.87379 12.937C8.23078 12.937 8.57324 12.9959 8.89718 13.0974V8.88509C8.56194 8.83944 8.22133 8.81091 7.87379 8.81091C3.68609 8.81091 0.279297 12.2179 0.279297 16.4056C0.279297 18.9749 1.563 21.2487 3.52144 22.6236C4.75502 23.4896 6.25551 24 7.87379 24C12.0615 24 15.4683 20.5932 15.4683 16.4056V8.02041C17.0866 9.18194 19.0693 9.86641 21.2087 9.86641V5.74031C20.0562 5.74031 18.9829 5.3977 18.0826 4.81073" fill="#BC7D6F"/>
</svg>
