<svg width="25" height="18" viewBox="0 0 25 18" fill="none" xmlns="http://www.w3.org/2000/svg">
<path fill-rule="evenodd" clip-rule="evenodd" d="M21.8505 0.999431C22.8825 1.27671 23.699 2.09315 23.9763 3.12523C24.4846 5.00457 24.5 8.90187 24.5 8.90187C24.5 8.90187 24.5 12.8146 23.9917 14.6785C23.7144 15.7106 22.8979 16.527 21.8659 16.8043C20.0019 17.3127 12.5 17.3127 12.5 17.3127C12.5 17.3127 4.99807 17.3127 3.13415 16.8043C2.10205 16.527 1.28562 15.7106 1.00834 14.6785C0.5 12.7992 0.5 8.90187 0.5 8.90187C0.5 8.90187 0.5 5.00457 0.992939 3.14064C1.27022 2.10855 2.08665 1.29212 3.11874 1.01484C4.98267 0.506489 12.4846 0.491089 12.4846 0.491089C12.4846 0.491089 19.9865 0.491089 21.8505 0.999431ZM16.3203 8.90188L10.0969 12.5065V5.29725L16.3203 8.90188Z" fill="#BC7D6F"/>
</svg>
