<svg xmlns="http://www.w3.org/2000/svg" viewBox="0 0 1103.49 437.4">
    <defs>
        <style>.cls-1{fill:#fff;}.cls-2{fill:#366b7a;}.cls-3{fill:#3a4647;}.cls-4{fill:#6cb2bb;}.cls-5{fill:#56a7ae;}.cls-6{fill:#61a6ac;}.cls-7{fill:#bc7d6f;}.cls-8{fill:#49989b;}</style>
    </defs>
    <g id="Layer_2" data-name="Layer 2">
        <g id="Layer_1-2" data-name="Layer 1">
            <path class="cls-1" d="M788.86,103.74c1.87-.48,4-1.41,4.49-3.36a3.7,3.7,0,0,0-2-3.94,10.15,10.15,0,0,0-4.56-.82c-4.47-.11-18,.51-19,4.67C766.33,106.55,784,105.07,788.86,103.74Z" />
            <path class="cls-2" d="M1091.14,185.8c2.15,8,8.42,136.46,8.45,137.7-.47,7.29-6.14,12.29-10.92,9.25-3.36-2.28-4.09-9.49-7.34-64.54-4.63-82.82-4.89-84.9.7-86.78,3.92-1.32,7.42-1.88,9.11,4.37m9.39,174c2.54,3.8,4,19.44,2.06,23.51-1.67,4-6.91,6-10.27,3.76-4.15-2.95-4.35-21.8-3.21-24.36,1.6-4.26,9-6.13,11.42-2.91" />
            <polygon class="cls-2" points="370 260.96 372.03 340.98 402.62 337.49 403.69 351.66 372.4 355.46 374.03 420.02 409.14 417.66 409.5 431.65 360.72 435.02 355.97 247.73 406.37 243.26 406.97 257.48 370 260.96" />
            <polygon class="cls-2" points="428.12 244.6 496.71 240.49 496.83 254.75 468.55 256.36 471.85 424.08 458.19 425.09 454.88 257.12 428.25 258.86 428.13 244.84 428.12 244.6" />
            <polygon class="cls-2" points="541.14 419.92 527.68 420.92 521.39 236.69 535.05 235.68 541.14 419.92" />
            <path class="cls-2" d="M612.75,414.39l4.49,18.82L603.9,437.4l-4-16.65a16.72,16.72,0,0,1-12.41-5.47A48.49,48.49,0,0,1,578.3,401a116.45,116.45,0,0,1-6.51-19.78q-2.65-11-4.33-21.54t-2.38-19.72q-.72-9.17-1.09-14.54c-.1-4.25-.16-9.48-.15-15.71s.3-12.75.91-19.59,1.58-13.75,2.9-20.73a91.24,91.24,0,0,1,5.55-18.83,45,45,0,0,1,9-13.93,19.83,19.83,0,0,1,13.17-6.14,16.62,16.62,0,0,1,11.7,4.79,42.3,42.3,0,0,1,8.81,12.49A93.87,93.87,0,0,1,622.07,265q2.48,9.52,4,18.74T628.4,301q.81,8.05,1.16,12.94.39,6.1.49,14.57t-.25,18.08q-.34,9.6-1.4,19.51a170.9,170.9,0,0,1-3,19,105.18,105.18,0,0,1-5.13,16.83,40.56,40.56,0,0,1-7.47,12.47M595.12,244.76q-4.5.57-7.46,5.59a51.09,51.09,0,0,0-5,12.67,117.13,117.13,0,0,0-3.14,16.83q-1.07,9.18-1.56,18.07t-.53,16.51q0,7.63.31,12,.42,7.11,1.54,18.58t3.35,23.23A158.84,158.84,0,0,0,588.19,390q3.36,9.94,7.78,14.29l-4.48-18.6,13.36-3.94,3.42,14a109.4,109.4,0,0,0,4.83-18.93q1.74-10.32,2.54-21t.76-21.08q0-10.46-.5-19.52-.81-13.47-2.56-26A202.84,202.84,0,0,0,609.1,267a59.81,59.81,0,0,0-6.1-15.78q-3.6-6-7.88-6.42" />
            <path class="cls-2" d="M664.12,224.63q.07,3,0,12.18t.09,22.13q.2,12.88.71,28.35t1.62,31q1.1,15.54,2.88,29.91a214.32,214.32,0,0,0,4.53,25.36q2.76,11,6.58,17.35t9,5.48q7.53-1,11.49-12.29t5.31-27.94a347.83,347.83,0,0,0,.84-36.71q-.51-20-1.81-38.84t-2.75-34.1q-1.44-15.27-1.87-22.61l13.65-1.75q.42,7.35,1.66,18.94T718.42,267q1.19,14.31,2.07,30.1t.79,31.3q-.07,15.5-1.49,29.74a127.88,127.88,0,0,1-4.91,25.45,54.69,54.69,0,0,1-9.32,18.4,23,23,0,0,1-14.77,8.59,16.91,16.91,0,0,1-15.11-4.78q-6.42-6.17-10.94-17.26a136.68,136.68,0,0,1-7.39-26q-2.85-14.92-4.45-31.4t-2.14-33q-.54-16.56-.67-30.94t.07-25.45q.18-11.08.29-16.25Z" />
            <polygon class="cls-2" points="754.01 232.48 756.04 312.5 786.63 309 787.71 323.18 756.41 326.98 758.04 391.54 793.15 389.18 793.51 403.17 744.73 406.54 739.99 219.25 790.38 214.78 790.98 229 754.01 232.48" />
            <polygon class="cls-2" points="812.13 216.12 880.72 212.01 880.84 226.27 852.56 227.87 855.87 395.6 842.2 396.61 838.89 228.64 812.26 230.38 812.14 216.36 812.13 216.12" />
            <polygon class="cls-2" points="962.62 202.5 962.98 216.73 938 218.59 941.38 389.26 927.73 390.27 924.34 219.6 902.2 221.24 901.84 207 962.62 202.5" />
            <polygon class="cls-2" points="997.85 214.4 999.88 294.41 1030.47 290.92 1031.54 305.1 1000.25 308.9 1001.88 373.45 1036.99 371.09 1037.35 385.09 988.57 388.46 983.82 201.17 1034.22 196.69 1034.82 210.91 997.85 214.4" />
            <path class="cls-3" d="M360,203.3c14,2.73,23.48-4.79,34.43-12.1a19.12,19.12,0,0,0,5.05-4.28c2-2.7,2.63-16.47,9.09-12.76,2.31,1.33,1.58,3.68,2.42,5.71s1.53,2.33,2.48,3.88c3.09,5,3.87,9.1,3.73,15.05a20.43,20.43,0,0,1-.71,5.79c-9.18-2-14.34-.36-23.16,2.82-9.55,3.45-19.89,9.8-30.09,9.44-9.89-.35-19.46-4.27-27.42-10.16s-14.39-13.64-19.64-22c-3.2-5.09-4.09-12.45,1.57-16.4,10.33-7.22,11.63,9.78,14.68,15C338.16,193.19,348.68,201.1,360,203.3Z" />
            <path class="cls-3" d="M65,283.84c-14,2.73-23.48-4.79-34.43-12.1a19.12,19.12,0,0,1-5.05-4.28c-2-2.7-2.63-16.47-9.09-12.76-3.43,2-1.41,8.07-4,9-5,1.9-6.12-6.28-11.23.86a5.78,5.78,0,0,0-1,5.06c1.12,3.34,5.09,3.27,7.35,4.91C6.37,276.77,4,277.4,2,278.93a4.28,4.28,0,0,0-1.66,4.53A4.24,4.24,0,0,0,4.13,286c4.44.34,7.36-2.66,11.77-2.49,5.29.21,10.88,2.7,15.8,4.48,9.55,3.45,19.89,9.8,30.09,9.44,9.89-.35,19.46-4.27,27.42-10.16s14.39-13.64,19.64-22c3.2-5.09,4.09-12.45-1.57-16.4-10.33-7.22-11.63,9.78-14.68,15C86.83,273.73,76.32,281.64,65,283.84Z" />
            <path class="cls-3" d="M172.32,321.16c-5.52,10.8-5.18,23.83-1.71,35.44s9.81,22.12,16.09,32.49a31.22,31.22,0,0,0-16.4,2.53c-2,2.78-.61,6.95,2.08,9.06s6.26,2.67,9.67,3c5.25.53,10.73.69,15.6-1.32s9-6.76,8.71-12c-.43-8.42-10.31-12.42-16-18.68-3.64-4.06-5.58-9.35-7.09-14.59-1.9-6.64-3.22-13.66-1.87-20.44s5.88-13.27,12.48-15.29c4.33-1.32,9-.63,13.5-1.09,18.07-1.84,8.8-20.32-5.24-20.23-10.67.06-25.33,12.23-29.87,21.12" />
            <path class="cls-3" d="M305.41,303.49c5.52,10.8,5.19,23.83,1.71,35.44s-9.81,22.12-16.09,32.49a31.22,31.22,0,0,1,16.4,2.53c2,2.78.62,6.95-2.08,9.06s-6.26,2.67-9.66,3c-5.25.53-10.74.7-15.61-1.31s-9-6.76-8.7-12c.43-8.42,10.3-12.42,15.94-18.68,3.65-4.06,5.58-9.35,7.09-14.59,1.9-6.64,3.22-13.67,1.87-20.44s-5.87-13.27-12.48-15.29c-4.32-1.32-9-.63-13.5-1.09-18.07-1.84-8.8-20.32,5.25-20.23,10.66.06,25.32,12.23,29.86,21.12" />
            <path class="cls-4" d="M337.65,150.7c-3.55-6.84-1.22-14.2-3-21.32-3.08-12-11.57-19.22-24.42-27.74,1.15-2.08,4.2-2.28,6.62-2.17l19.82,1c-11-11.85-26.78-15.62-38.48-25.41C285.24,64.2,275.58,52,258.06,46.68A40.64,40.64,0,0,0,266,25.53a121.18,121.18,0,0,1-30.74,16c-.52-6.64,7.81-23.19.26-26,1.11.41-16.77,26.84-20.53,28.78A33.08,33.08,0,0,1,206.33,47l-.23-.32a36.87,36.87,0,0,0-9.25-8.24c-8.64-5.25-18-4.79-25.86-13.13a71.73,71.73,0,0,0,6.06,14.8,26.54,26.54,0,0,0,2.54,3.92c.87,1.08,1.5,2.3,2.31,3.44.52.75,1.15,1.42,1.67,2.17.77,1.1,1.49,2.67.24,3.71a4,4,0,0,1-1,.54c-3.33,1.4-7,1.56-10.53,1.71-3.8.16-7.59.25-11.65,1.51a79.67,79.67,0,0,0-21.45,9.9c-12.76,8.66-12.9,18.77-14.5,32.11-1.71,14.22-15.19,16.93-26.9,22.22-2.12,1-4.65,3.26-3.23,5.11,5.22,6.77,14.73,3.69,19.47,11.86,3.8,6.53,3.69,15.84-1.16,21.78-3.14,3.84-7.58,6.41-10.88,10.1-8.78,9.77-7.71,24.58-6.11,37.59.62,5.09,1.69,10.89,6.12,13.49,2.35,1.37,5.23,1.55,7.64,2.82,7.27,3.84,6.27,14.46,3.65,22.24-2.12,6.28-5.77,18.61-1.89,25,5,8.26,8-.19,15.89-1A5.68,5.68,0,0,1,131,271c1.33.87,1.88,2.49,2.32,4a112,112,0,0,1,3.7,18.48c.4,3.54.66,7.2,2.23,10.4,3.48,7.05,13.69,5,19.86,9.51a31.4,31.4,0,0,1,12.6,20.94A167.47,167.47,0,0,0,241,329.94a176.92,176.92,0,0,0,57.24-27.47c6.55-4.77,12.83-10.06,17.58-16.62,5.12-7.05,8.29-15.33,10.82-23.67,1.67-5.49,2-11.38,3.43-16.94.64-2.47,1.33-7,3.23-8.82,3.41-3.37,4.11,1.42,7.63,3.46a1.85,1.85,0,0,1,.89,1.24,14.92,14.92,0,0,0,2.67-8.93,43.86,43.86,0,0,0-1.52-9.9,33.74,33.74,0,0,0-2.54-7.86c-1.17-2.24-4.69-5.2-4.4-8,.32-3.12,3-3.44,5.62-1.9a3.28,3.28,0,0,0,1.51.63c1.29,0,1.69-1.75,1.65-3a90,90,0,0,0-2.51-19c-1.08-4.49-6.41-13.49,1.65-14.5a2.07,2.07,0,0,0,1-.29,1.6,1.6,0,0,0,.5-1c.59-3.11-.74-6.27-2.49-8.91S339.11,153.5,337.65,150.7Z" />
            <path class="cls-5" d="M341.85,241.12c-.11.15-.18.31-.3.45A.38.38,0,0,0,341.85,241.12Z" />
            <path class="cls-6" d="M139.29,303.92c-1.57-3.2-1.83-6.86-2.23-10.4a112,112,0,0,0-3.7-18.48c-.44-1.52-1-3.14-2.32-4a5.68,5.68,0,0,0-3.75-.63c-7.93.82-10.92,9.27-15.89,1-3.88-6.43-.23-18.76,1.89-25,2.62-7.78,3.62-18.4-3.65-22.24-2.41-1.27-5.29-1.45-7.64-2.82-4.43-2.6-5.5-8.4-6.12-13.49-1.6-13-2.67-27.82,6.11-37.59,3.3-3.69,7.74-6.26,10.88-10.1,4.85-5.94,5-15.25,1.16-21.78-4.74-8.17-14.25-5.09-19.47-11.86-1.42-1.85,1.11-4.14,3.23-5.11,11.71-5.29,25.19-8,26.9-22.22,1.6-13.34,1.74-23.45,14.5-32.11a79.67,79.67,0,0,1,21.45-9.9c4.06-1.26,7.85-1.35,11.65-1.51a43,43,0,0,0,9.05-1.08c.89-.23,3.3-1,3.37-2.19s-2-2-2.92-2.5c-2.27-1.1-4.84-1.38-7.27-2-3.24-.77-6-1.66-9.39-1.09-7.59,1.28-13.64,4.93-20.54,7.76S131.78,62.19,126.11,67c-4.31,3-8.64,6-13.14,8.59-9.71,5.59-21,9.69-32,7.81q1.27,9.08,2.57,18.15c.45,3.21,1,6.71,3.49,8.87a5,5,0,0,0,1,.66c-3.41,5-7.06,9.86-11.82,13.68C63.26,135.11,51.73,142.51,48,159.09c3.32-.79,5.93-3.25,8.72-5.21s6.63-3.75,9.71-1.68c-2.15,6.18-8.57,11.65-11.66,17.77-.5,1-1,2.25-.32,3.17,1.22,1.75,3.94-.21,6.07.1s3.13,3.09,3.51,5.36c1.55,9.42,4,15.28,1.2,24.65-2.17,5.07-5.34,9.92-5.77,15.42a24.16,24.16,0,0,0,2.44,12.15c3.93-2,7.44-7.52,9.63-.15,1.87,6.26-.11,14.83.15,21.38.29,7.54,1.44,15.6,6.52,21.19.35.39.85.79,1.35.61a1.13,1.13,0,0,0,.6-.65c.77-1.55.58-3.37.77-5.09.94-8.62,6.06,1.24,7.58,3.88,3,5.27,5.87,10.66,9.27,15.7,8.06,11.92,18.92,21.58,30.13,30.45,5.26,4.17,9.34,7,15.62,9a191.73,191.73,0,0,0,18.81,5.47c3.11.68,6.23,1.25,9.38,1.73a31.4,31.4,0,0,0-12.6-20.94C153,309,142.77,311,139.29,303.92Z" />
            <path class="cls-1" d="M136.69,204.92a2.28,2.28,0,0,1,.21,3.8,2.52,2.52,0,0,1-3.63-1.59,2.83,2.83,0,0,1,2.56-3.21l.77.59" />
            <path class="cls-1" d="M304.67,170.88a2.28,2.28,0,0,1,.21,3.8,2.52,2.52,0,0,1-3.63-1.59,2.83,2.83,0,0,1,2.56-3.21l.77.59" />
            <path class="cls-1" d="M124.6,201.61a2.28,2.28,0,0,1,.21,3.8,2.53,2.53,0,0,1-3.63-1.59,2.82,2.82,0,0,1,2.56-3.21l.77.58" />
            <path class="cls-1" d="M289.85,174.87a2.28,2.28,0,0,1,.21,3.8,2.53,2.53,0,0,1-3.63-1.6,2.83,2.83,0,0,1,2.56-3.21l.77.59" />
            <path class="cls-1" d="M129,211.18a2.28,2.28,0,0,1,.21,3.8,2.53,2.53,0,0,1-3.63-1.59,2.83,2.83,0,0,1,2.56-3.21l.77.58" />
            <path class="cls-1" d="M302.66,182.86a2.28,2.28,0,0,1,.21,3.8,2.53,2.53,0,0,1-3.63-1.59,2.83,2.83,0,0,1,2.56-3.21l.77.58" />
            <path class="cls-3" d="M188.71,117.25c-24.81,3.28-52.05,7.61-74.6,18.85C94.28,146,77,159,58.34,170.66c-1.05.66-2.19,1.44-2.44,2.65a4,4,0,0,0,.62,2.65c1,1.91,2.36,3.62,3.28,5.56,2.91,6.13-8.45,14.73-1,18.47,4.15,2.09,12.9-2.31,17-3.51,6.1-1.8,12.27-3.37,18.41-5,23.12-6.2,47-10.42,71.07-9.22q7.26.36,14.47,1.38c5.49.8,11.09,1.89,16.44.83,10.49-2.09,18.33-12.19,29.11-12.59,7-.25,13.67,3.65,20.64,4.58,12.81,1.7,24-6.59,35.28-12.25,11.58-5.79,25.43-9.12,38-12a77.94,77.94,0,0,1,12.33-2c3.21-.21,5.65.14,5-4.09-.71-4.49-1.83-9-1.47-13.56a7.09,7.09,0,0,0-.11-2.94c-.53-1.5-2.06-2.36-3.48-3.1-6.66-3.43-12.29-6.87-19.58-8.75a177.19,177.19,0,0,0-22.51-4.38c-10.65-1.32-21.9-.6-32.63-.48a567.69,567.69,0,0,0-68,4.44" />
            <path class="cls-1" d="M248.86,139.56c-2.87.87-4.47,4.1-4.44,7.1,0,1.5,1.14,8.26,3,8.53,2,.3,4.9-5.11,6.09-6.33,1.77-1.8,4.38-3.17,6.75-2.33a8.73,8.73,0,0,1,2.69,1.83c1,.89,4.63,5.35,6,5,5-1.18-3-11.18-4.77-12.46-4.72-3.4-10-3-15.25-1.37" />
            <path class="cls-1" d="M171.13,149.75c-2.87.87-4.48,4.1-4.45,7.09,0,1.51,1.15,8.26,2.95,8.54,2,.3,4.9-5.11,6.1-6.33,1.76-1.8,4.37-3.17,6.74-2.33a8.78,8.78,0,0,1,2.7,1.83c1,.89,4.62,5.34,6,5,5-1.18-3-11.19-4.77-12.46-4.72-3.4-10-3-15.24-1.37" />
            <path class="cls-4" d="M164.59,96.64A104.65,104.65,0,0,1,142,143.77a57.36,57.36,0,0,0,64.13-34.89c.9-2.24,2.12-4.91,4.52-5.16,1.87-.19,3.56,1.36,4.16,3.13a12.63,12.63,0,0,1,.18,5.58" />
            <path class="cls-3" d="M164.59,96.64a85.59,85.59,0,0,1-6.4,25.89,92.86,92.86,0,0,1-6.06,12.09,90.59,90.59,0,0,1-7.76,11.14l-1.78-5a58.17,58.17,0,0,0,22.84-.79,56.71,56.71,0,0,0,20.75-9.54,60.43,60.43,0,0,0,15.65-17.08c1-1.66,1.93-3.41,2.83-5.19s1.94-4.16,4.6-5.24a4.27,4.27,0,0,1,3.84.51,5.76,5.76,0,0,1,2.11,2.78c.75,2.2.19,4.3-.24,6.27,0-2,0-4.16-.93-5.74s-2.75-2.39-3.88-1.66-1.9,2.46-2.47,4.29a52.09,52.09,0,0,1-2.31,5.84A52.76,52.76,0,0,1,198.8,126a53.44,53.44,0,0,1-8.89,9.15A56.92,56.92,0,0,1,167,146.49a58.36,58.36,0,0,1-25.6.33l-5.29-1.16,3.5-3.9a119.94,119.94,0,0,0,8-10.09,126.3,126.3,0,0,0,6.83-10.95,133.86,133.86,0,0,0,10.21-24.08" />
            <path class="cls-3" d="M152.63,233.16a16,16,0,0,1-3.17-5.67,18.09,18.09,0,0,1-.94-6.56,14.3,14.3,0,0,1,1.76-6.49,9.41,9.41,0,0,1,4.92-4.38,16.2,16.2,0,0,0-2.92,5.28,22,22,0,0,0-1,5.72,38.45,38.45,0,0,0,.27,5.94C151.83,229,152.22,231,152.63,233.16Z" />
            <path class="cls-3" d="M265.23,246.73c7.59-6.23,15.41-13.88,18.51-23.55,3-9.32.63-23-8-28.79-9.42-6.29-23.41-.17-32.41,3.87-30.63,13.79-53.67,7.18-54.41,7.31s-24.85-1.65-24,18.44c.46,10.55,9.19,19.49,17.15,25.42a71.29,71.29,0,0,0,37.06,14c15,1,29.69-4.51,41.68-13.29,1.48-1.08,3-2.23,4.45-3.45" />
            <path class="cls-7" d="M200.78,259.26S198.6,244,217.26,239.54c10-2.36,24,11.51,24,11.51s1.56-6-5.87-11.37c0,0,4.91-2.8,12.48-.7a16.62,16.62,0,0,1,11.81,12s-26.37,21.45-58.9,8.26" />
            <path class="cls-8" d="M171.75,334.37s10.1,1.25,13,1.42c0,0-17.46-19.22-25.63-22.36S171.75,334.37,171.75,334.37Z" />
            <path class="cls-3" d="M395.41,178.05a5.47,5.47,0,0,1,1.9-3.07,3,3,0,0,1,3.44-.22,4.87,4.87,0,0,1,1.62,2.92c1.09,3.92,2.2,8,1.5,12-3.54,0-5.12.55-6.78-2.49C395.68,184.58,394.59,181,395.41,178.05Z" />
            <path class="cls-4" d="M441.86,72.7c-1.19-2.48-1.33-6-1.67-8.54a53.65,53.65,0,0,0-2.38-10,25.75,25.75,0,0,0-4.58-8.27,9.2,9.2,0,0,0-7.64-3.37c-3.62.11-6.67,2.09-9.17,6a49,49,0,0,0-6,15,161.71,161.71,0,0,0-3.51,20.05q-1.26,10.92-1.7,21.28t-.47,18.84q0,8.49.31,12.16.06,2.7.83,9.4T408,160.25q1.4,8.38,3.39,17.33a123.1,123.1,0,0,0,4.66,16.13,41.78,41.78,0,0,0,6,11.36q3.29,4.19,7.52,3.14a10.67,10.67,0,0,0,5.79-4.12,27.52,27.52,0,0,0,3.71-7.28,63.16,63.16,0,0,0,2.27-8.42c1.1-5.63,1.57-8.86,8.24-8.65,8.55.27,5.75,9.33,4.43,15a52.4,52.4,0,0,1-4.3,11.88,39.89,39.89,0,0,1-7,9.74,20.82,20.82,0,0,1-10.47,5.7q-8,2.06-14-1.92a34.21,34.21,0,0,1-10.44-11.65,80.31,80.31,0,0,1-7.41-17.64,198.86,198.86,0,0,1-4.88-20.18q-1.92-10.19-2.85-19.09t-1.31-14.29c-.26-4.24-.45-9.89-.54-16.93s.14-14.6.72-22.68,1.56-16.23,2.92-24.44a108.43,108.43,0,0,1,6.05-22.33,47.79,47.79,0,0,1,10.21-16.25,21.24,21.24,0,0,1,15.18-6.42q8.25-.12,13.67,4a30,30,0,0,1,8.65,10.67A56.12,56.12,0,0,1,453,57.19c.6,3.15,3.21,11.35,1.57,14.35-.72,1.32-7.12,4.26-8.67,4.12a4.73,4.73,0,0,1-4-3" />
            <path class="cls-4" d="M555.47,24.13A5.75,5.75,0,0,1,558.28,21c2.42-1.5,5.35-1.53,8.09-1.3a10.53,10.53,0,0,1,3.53.77c4.31,2,4.6,10.92,5.52,15.17q2.83,13,5.66,25.91,6.12,28.08,12.25,56.15c.49,2.25.32,5.08,1.39,7.1,2.18,4.12,2.84-2.77,3.19-4.81q2.19-12.81,4.4-25.63l10.23-59.59q1-5.88,2-11.75a25.26,25.26,0,0,1,.59-3.46c1.15-3.58,4.88-5,8.32-4.89,2.12.05,6.82.62,8.43,2S633,22.53,633.08,25q2.65,50.85,5.3,101.68c.8,15.19,1.37,30.39,2.13,45.59.39,7.67,7,33.84-6.28,31.92-7.56-1.09-6-9-6.32-15q-.76-14.51-1.52-29-2.53-48.27-5.06-96.56c-.25,1.44-.49,2.88-.74,4.31l-9.12,53.67q-2.34,13.68-4.66,27.35c-1.22,7.15-1.54,15.47-10.81,16.2a8.11,8.11,0,0,1-6.77-2.75c-3.26-4.16-3.61-14.2-4.73-19.43L578,113l-8.88-41.1c.85,3.94,0,9.14.06,13.19q.06,16.22.14,32.41.15,29.64.28,59.29c0,9.34,4.26,20.93,1,30.14-1.66,4.64-7.56,7.68-12,5.13-5.35-3-2.75-12.67-2.73-17.85q0-11.16-.08-22.34l-.22-59.68-.18-47.6q0-11.76-.08-23.51,0-6,0-12c0-2.06-.15-3.61.28-4.94" />
            <path class="cls-4" d="M696.2,200.73a18.07,18.07,0,0,1-12-3.66,33.66,33.66,0,0,1-8.86-10.54,72.36,72.36,0,0,1-6.13-14.92,156.75,156.75,0,0,1-4-16.79q-1.51-8.49-2.29-16.19t-1.16-13.07q-.39-6.36-.43-17t.83-23.06q.85-12.36,2.66-25a141.33,141.33,0,0,1,5.17-23.25,65.67,65.67,0,0,1,8.48-17.85q5.12-7.26,12.37-8.78a15,15,0,0,1,13.73,3.65,41.3,41.3,0,0,1,9.77,14.4,105.35,105.35,0,0,1,6.41,21.16q2.43,12,3.79,23.83t1.86,22.24c.33,7,.47,12.46.42,16.57-.09,3.12-.25,7.43-.51,13s-.76,11.49-1.54,17.94-1.86,13-3.26,19.79a101.51,101.51,0,0,1-5.53,18.37,48,48,0,0,1-8.24,13.63,15.85,15.85,0,0,1-11.62,5.67m.24-14.28q4.21-1.06,7.47-7.69A68.13,68.13,0,0,0,709.15,162a200.39,200.39,0,0,0,3-22.85q1-12.73,1.1-26.27-.11-3.69-.42-11.9t-1.29-18.35q-1-10.12-2.54-20.72a180.57,180.57,0,0,0-3.79-19.14,53.49,53.49,0,0,0-5.3-13.74q-3.09-5.19-6.84-4.42c-3,.56-5.47,3-7.48,7.32a74.59,74.59,0,0,0-5,16.11,201.56,201.56,0,0,0-3.12,21q-1.12,11.42-1.68,22.26t-.57,19.6q0,8.73.34,13.13c0,2,.28,4.9.69,8.8s1,8.17,1.62,12.79,1.54,9.35,2.61,14.19a95.56,95.56,0,0,0,3.87,13.24,34.85,34.85,0,0,0,5.32,9.69c2,2.48,4.3,3.7,6.83,3.68" />
            <path class="cls-4" d="M746.84,7.31c2-5.41,8.9-4.6,12.66-2.47,6.16,3.47,6.68,12.65,8.58,19.1,5.64,19.16,11.53,38.25,17.23,57.4l23.52,79.06q-.87-45.57-1.75-91.15-.42-22.12-.85-44.24c-.09-4.94-.17-9.88-.28-14.82,0-1.23-.46-3.29-.1-4.47,1.44-4.69,9.83-7.83,13.09-4,3.48,4.07,1.12,19.26,1.22,24.67q.54,28.74,1.09,57.5l1.23,64.38L823,173c.12,6.22,2.62,16.34-5.4,17.52a32.86,32.86,0,0,1-8.38.49c-8.38-1-8.95-10.47-11-17.53l-7.2-24.28q-14.1-47.52-28.21-95,1.2,19.11,2.38,38.21Q767,123.3,769,154.26c.77,12.3,4.22,27.75,2.16,40-5.7,0-12.7,1.54-13.8-6.16-1.17-8.19-1.06-16.87-1.58-25.15l-3.09-49.22q-2-31.18-3.92-62.38c-.82-13.16-3.18-27.19-2.54-40.44a12.6,12.6,0,0,1,.66-3.62" />
            <path class="cls-3" d="M516.19,122.69l16.48,1.08c1.56,3,.21,7-2.23,9.44-2.71,2.73-12.74,4.57-11.3,9.69,1.09,3.91,7.94,19.28,4.85,22.76-4,4.51-11-2.27-13.24-5.52-1.31-1.88-2.83-4.09-5.09-4.09-4.75,0-8.55,6.93-10.78,10.3a4.71,4.71,0,0,1-1.92,1.91,2.85,2.85,0,0,1-3.32-1.35,9.34,9.34,0,0,1-1.05-3.84c-.58-4.91.09-12.68-2.28-16.83-2.17-3.8-7.72-5.62-10.87-8.38-2.21-1.93-4.3-5.4-2.32-7.75a6.18,6.18,0,0,1,3.51-1.69l12.6-2.92a9.25,9.25,0,0,0,3.71-1.46,8.74,8.74,0,0,0,2.33-3.26c3-6.3,3.31-22.94,9.7-10.93,1.81,3.42,1.8,12.21,6.21,12.51l5,.33" />
            <path class="cls-1" d="M511.61,140.85c1.84-.64,3.93-1.74,4.24-3.72a3.66,3.66,0,0,0-2.34-3.74,10.28,10.28,0,0,0-4.63-.43c-4.48.27-18,2-18.64,6.23C489.29,145.53,506.89,142.57,511.61,140.85Z" />
            <path class="cls-3" d="M402.54,179.49a4,4,0,0,0-2.84,1.13,2.64,2.64,0,0,0-.42,2c.51,3.09,4.25,4.27,7.33,4.83l8.63,1.58a33.84,33.84,0,0,0-5.74,3c-2.21,1.45-4.48,3.78-3.83,6.34a4.58,4.58,0,0,0,4.3,3.13,9.26,9.26,0,0,0,5.32-1.78,9.49,9.49,0,0,0,3.9-4.33c1.68-4.44-2.07-10.29-5-13.45C410.85,178.39,407.57,179,402.54,179.49Z" />
        </g>
    </g>
</svg>